# xmcd
#
# Track frame offsets:
#	150
#	17115
#	31972
#	47801
#	66018
#	85291
#	100087
#	119319
#	136370
#	154060
#	172193
#	194029
#	210079
#	231531
#	249078
#	271172
#	288819
#	303026
#	319497
#
# Disc length: 4478 seconds
#
# Revision: 1
# Processed by: cddbd v1.5.2PL0 Copyright (c) Steve Scherf et al.
# Submitted via: audiograbber 1.83.01
#
DISCID=07117c13
DTITLE=Shakira - The Best of Shakira - Antologija
DYEAR=2005
DGENRE=
TTITLE0=Objection (Tango)
TTITLE1=Suerte (Whenever,Wherever)
TTITLE2=Donde Estan Los Labrones (MTV Unplugged)
TTITLE3=Un Poco De Amor
TTITLE4=Antologia
TTITLE5=Inevitable
TTITLE6=No Creo (MTV Unplugged)
TTITLE7=Underneath Your Clothes
TTITLE8=Estoy Agui
TTITLE9=Ojos Asi
TTITLE10=Que Me Quebes
TTITLE11=Si Te Vas
TTITLE12=Magia
TTITLE13=Fool
TTITLE14=Tu (MTV unplugged)
TTITLE15=Donde Estan Corazon
TTITLE16=Te Dejo Madrid
TTITLE17=Dude (Looks Like A Lady)
TTITLE18=Knock On My Door
EXTD=3B
EXTT0=
EXTT1=
EXTT2=
EXTT3=
EXTT4=
EXTT5=
EXTT6=
EXTT7=
EXTT8=
EXTT9=
EXTT10=
EXTT11=
EXTT12=
EXTT13=
EXTT14=
EXTT15=
EXTT16=
EXTT17=
EXTT18=
PLAYORDER=
